REM DIRINDEX 1\2,1\3,1\4,1\5
REM DIRNAME folder01,folder02,folder03,folder04,folder05
TITLE ""
FILE "P1Q_t_0232-0241.mp3" MP3
  TRACK 01 AUDIO
    TITLE "3:cjc005_1597"
    INDEX 01 00:00:00
  TRACK 02 AUDIO
    TITLE "0:"
    INDEX 01 00:01:11
  TRACK 03 AUDIO
    TITLE "4:cjc005_1598"
    INDEX 01 00:01:32
  TRACK 04 AUDIO
    TITLE "0:"
    INDEX 01 00:03:10
  TRACK 05 AUDIO
    TITLE "5:cjc005_1599"
    INDEX 01 00:03:37
  TRACK 06 AUDIO
    TITLE "0:"
    INDEX 01 00:08:03
  TRACK 07 AUDIO
    TITLE "3:cjc005_1600"
    INDEX 01 00:08:56
  TRACK 08 AUDIO
    TITLE "0:"
    INDEX 01 00:10:31
  TRACK 09 AUDIO
    TITLE "4:cjc005_1601"
    INDEX 01 00:10:57
  TRACK 10 AUDIO
    TITLE "0:"
    INDEX 01 00:12:22
  TRACK 11 AUDIO
    TITLE "5:cjc005_1602"
    INDEX 01 00:12:42
  TRACK 12 AUDIO
    TITLE "0:"
    INDEX 01 00:17:49
  TRACK 13 AUDIO
    TITLE "3:cjc005_1603"
    INDEX 01 00:18:27
  TRACK 14 AUDIO
    TITLE "0:"
    INDEX 01 00:19:26
  TRACK 15 AUDIO
    TITLE "4:cjc005_1604"
    INDEX 01 00:19:48
  TRACK 16 AUDIO
    TITLE "0:"
    INDEX 01 00:21:04
  TRACK 17 AUDIO
    TITLE "5:cjc005_1605"
    INDEX 01 00:21:23
  TRACK 18 AUDIO
    TITLE "0:"
    INDEX 01 00:24:72
  TRACK 19 AUDIO
    TITLE "3:cjc005_1606"
    INDEX 01 00:25:52
  TRACK 20 AUDIO
    TITLE "0:"
    INDEX 01 00:26:62
  TRACK 21 AUDIO
    TITLE "4:cjc005_1607"
    INDEX 01 00:27:16
  TRACK 22 AUDIO
    TITLE "0:"
    INDEX 01 00:28:39
  TRACK 23 AUDIO
    TITLE "5:cjc005_1608"
    INDEX 01 00:28:66
  TRACK 24 AUDIO
    TITLE "0:"
    INDEX 01 00:33:40
  TRACK 25 AUDIO
    TITLE "3:cjc005_1609"
    INDEX 01 00:34:18
  TRACK 26 AUDIO
    TITLE "0:"
    INDEX 01 00:35:33
  TRACK 27 AUDIO
    TITLE "4:cjc005_1610"
    INDEX 01 00:35:55
  TRACK 28 AUDIO
    TITLE "0:"
    INDEX 01 00:37:05
  TRACK 29 AUDIO
    TITLE "5:cjc005_1611"
    INDEX 01 00:37:28
  TRACK 30 AUDIO
    TITLE "0:"
    INDEX 01 00:40:28
  TRACK 31 AUDIO
    TITLE "3:cjc005_1612"
    INDEX 01 00:41:02
  TRACK 32 AUDIO
    TITLE "0:"
    INDEX 01 00:42:33
  TRACK 33 AUDIO
    TITLE "4:cjc005_1613"
    INDEX 01 00:42:61
  TRACK 34 AUDIO
    TITLE "0:"
    INDEX 01 00:44:01
  TRACK 35 AUDIO
    TITLE "5:cjc005_1614"
    INDEX 01 00:44:22
  TRACK 36 AUDIO
    TITLE "0:"
    INDEX 01 00:48:65
  TRACK 37 AUDIO
    TITLE "3:cjc005_1615"
    INDEX 01 00:49:43
  TRACK 38 AUDIO
    TITLE "0:"
    INDEX 01 00:50:66
  TRACK 39 AUDIO
    TITLE "4:cjc005_1616"
    INDEX 01 00:51:24
  TRACK 40 AUDIO
    TITLE "0:"
    INDEX 01 00:52:45
  TRACK 41 AUDIO
    TITLE "5:cjc005_1617"
    INDEX 01 00:52:73
  TRACK 42 AUDIO
    TITLE "0:"
    INDEX 01 00:57:05
  TRACK 43 AUDIO
    TITLE "3:cjc005_1618"
    INDEX 01 00:57:54
  TRACK 44 AUDIO
    TITLE "0:"
    INDEX 01 00:59:02
  TRACK 45 AUDIO
    TITLE "4:cjc005_1619"
    INDEX 01 00:59:30
  TRACK 46 AUDIO
    TITLE "0:"
    INDEX 01 01:00:39
  TRACK 47 AUDIO
    TITLE "5:cjc005_1620"
    INDEX 01 01:00:60
  TRACK 48 AUDIO
    TITLE "0:"
    INDEX 01 01:04:70
  TRACK 49 AUDIO
    TITLE "3:cjc005_1621"
    INDEX 01 01:05:46
  TRACK 50 AUDIO
    TITLE "0:"
    INDEX 01 01:06:65
  TRACK 51 AUDIO
    TITLE "4:cjc005_1622"
    INDEX 01 01:07:12
  TRACK 52 AUDIO
    TITLE "0:"
    INDEX 01 01:08:42
  TRACK 53 AUDIO
    TITLE "5:cjc005_1623"
    INDEX 01 01:08:60
  TRACK 54 AUDIO
    TITLE "0:"
    INDEX 01 01:11:43
  TRACK 55 AUDIO
    TITLE "3:cjc005_1624"
    INDEX 01 01:12:17
  TRACK 56 AUDIO
    TITLE "0:"
    INDEX 01 01:13:22
  TRACK 57 AUDIO
    TITLE "4:cjc005_1625"
    INDEX 01 01:13:45
  TRACK 58 AUDIO
    TITLE "0:"
    INDEX 01 01:14:65
  TRACK 59 AUDIO
    TITLE "5:cjc005_1626"
    INDEX 01 01:15:11
  TRACK 60 AUDIO
    TITLE "0:"
    INDEX 01 01:18:29
